<svg width="59" height="18" viewBox="0 0 59 18" fill="none" xmlns="http://www.w3.org/2000/svg">
<path d="M45.5 6.75L50 11.25L54.5 6.75" stroke="#777777" stroke-linecap="round" stroke-linejoin="round"/>
<path d="M6.37544 6.323H8.58644V7.071H6.37544V6.323ZM8.33344 3.914H9.24644V9.315H8.33344V3.914ZM2.87744 9.799H3.77944V11.009H8.34444V9.799H9.24644V13.726H2.87744V9.799ZM3.77944 11.746V12.978H8.34444V11.746H3.77944ZM3.60344 4.695H4.35144V5.509C4.35144 7.313 3.22944 8.875 1.56844 9.491L1.09544 8.754C2.58044 8.237 3.60344 6.917 3.60344 5.509V4.695ZM3.77944 4.695H4.51644V5.498C4.51644 6.785 5.48444 8.028 6.92544 8.534L6.46344 9.249C4.84644 8.666 3.77944 7.17 3.77944 5.498V4.695ZM1.38144 4.508H6.69444V5.245H1.38144V4.508ZM13.8436 4.673C15.2846 4.673 16.3186 6.026 16.3186 8.138C16.3186 10.261 15.2846 11.614 13.8436 11.614C12.3916 11.614 11.3686 10.261 11.3686 8.138C11.3686 6.026 12.3916 4.673 13.8436 4.673ZM13.8436 5.498C12.8866 5.498 12.2376 6.532 12.2376 8.138C12.2376 9.755 12.8866 10.811 13.8436 10.811C14.8006 10.811 15.4496 9.755 15.4496 8.138C15.4496 6.532 14.8006 5.498 13.8436 5.498ZM18.4746 3.903H19.3766V13.869H18.4746V3.903ZM16.0216 7.698H18.8706V8.446H16.0216V7.698ZM22.5437 7.61H29.1877V8.358H22.5437V7.61ZM21.3007 9.645H30.3207V10.404H21.3007V9.645ZM25.3267 10.063H26.2287V13.825H25.3267V10.063ZM22.5437 4.497H29.0557V5.245H23.4677V7.973H22.5437V4.497ZM38.6689 3.914H39.5819V13.858H38.6689V3.914ZM35.7539 4.981H36.6559C36.6559 7.863 35.3579 10.382 32.0359 12.01L31.5519 11.273C34.4229 9.887 35.7539 7.775 35.7539 5.135V4.981ZM32.0029 4.981H36.1499V5.729H32.0029V4.981Z" fill="#777777"/>
</svg>
