<svg width="59" height="18" viewBox="0 0 59 18" fill="none" xmlns="http://www.w3.org/2000/svg">
<path d="M6.34244 7.175H8.32244V4.458H9.23544V11.685H8.32244V7.912H6.34244V7.175ZM6.92544 9.496L6.47444 10.2C5.37444 9.804 4.52744 8.979 4.09844 7.967C3.66944 9.089 2.76744 10.002 1.61244 10.42L1.13944 9.716C2.60244 9.188 3.62544 7.879 3.62544 6.482V5.987H1.42544V5.25H6.69444V5.987H4.52744V6.471C4.52744 7.758 5.49544 8.99 6.92544 9.496ZM3.83444 13.357H9.51044V14.094H2.92144V11.047H3.83444V13.357ZM14.0966 7.01V7.483C14.0966 9.056 14.8886 10.684 16.2196 11.399L15.7026 12.081C14.7456 11.542 14.0416 10.541 13.6786 9.353C13.3376 10.607 12.6446 11.707 11.6766 12.29L11.1486 11.619C12.4796 10.827 13.2386 9.1 13.2386 7.483V7.01H11.4126V6.262H13.2386V4.799H14.1076V6.262H15.9226V7.01H14.0966ZM16.7586 8.341V4.678H17.6166V13.797H16.7586V9.089H15.2516V8.341H16.7586ZM18.7386 4.447H19.6076V14.303H18.7386V4.447ZM23.2917 7.648V9.463H28.3297V7.648H23.2917ZM26.2617 12.312H30.2877V13.049H21.3447V12.312H25.3487V10.189H22.4007V5.151H23.2917V6.911H28.3297V5.151H29.2097V10.189H26.2617V12.312ZM32.0469 5.514H36.6669C36.6669 8.363 35.3579 10.871 32.0799 12.477L31.5959 11.74C34.2469 10.475 35.5669 8.583 35.7539 6.24H32.0469V5.514ZM38.6579 4.447H39.5599V14.314H38.6579V4.447Z" fill="#777777"/>
<path d="M47.75 13.5L52.25 9L47.75 4.5" stroke="#777777" stroke-linecap="round" stroke-linejoin="round"/>
</svg>
