<svg width="59" height="18" viewBox="0 0 59 18" fill="none" xmlns="http://www.w3.org/2000/svg">
<path d="M27.1637 9.034L26.7127 9.749C25.6127 9.342 24.7657 8.528 24.3257 7.516C23.9077 8.649 23.0057 9.54 21.8507 9.98L21.3777 9.265C22.8407 8.748 23.8637 7.439 23.8637 6.031V5.778H21.6637V5.041H26.9327V5.778H24.7657V6.031C24.7657 7.296 25.7337 8.528 27.1637 9.034ZM28.5717 13.445V12.202H24.0397V13.445H28.5717ZM28.5717 11.498V10.277H29.4627V14.182H23.1487V10.277H24.0397V11.498H28.5717ZM28.5607 4.458H29.4627V9.804H28.5607V7.582H26.6137V6.845H28.5607V4.458ZM32.0469 5.514H36.6669C36.6669 8.363 35.3579 10.871 32.0799 12.477L31.5959 11.74C34.2469 10.475 35.5669 8.583 35.7539 6.24H32.0469V5.514ZM38.6579 4.447H39.5599V14.314H38.6579V4.447Z" fill="#777777"/>
<path d="M54.5 11.25L50 6.75L45.5 11.25" stroke="#777777" stroke-linecap="round" stroke-linejoin="round"/>
</svg>
