<svg width="59" height="18" viewBox="0 0 59 18" fill="none" xmlns="http://www.w3.org/2000/svg">
<path d="M8.32244 9.727V8.253H6.71644V7.527H8.32244V6.603H6.71644V5.877H8.32244V4.447H9.23544V9.727H8.32244ZM3.25144 5.8V8.638C3.73544 8.627 4.24144 8.616 4.73644 8.594V5.8H3.25144ZM6.90344 8.429L6.95844 9.089C5.07744 9.375 2.85544 9.397 1.23844 9.397L1.13944 8.649C1.51344 8.649 1.94244 8.649 2.38244 8.649V5.8H1.40344V5.074H6.59544V5.8H5.61644V8.539C6.05644 8.517 6.49644 8.473 6.90344 8.429ZM3.79044 13.5H9.60944V14.204H2.89944V11.795H8.34444V10.882H2.87744V10.178H9.23544V12.466H3.79044V13.5ZM14.6356 6.878V7.648C14.6356 9.265 15.7136 10.882 17.1656 11.553L16.6486 12.246C15.5376 11.729 14.6356 10.651 14.1956 9.353C13.7776 10.717 12.8646 11.85 11.7426 12.4L11.2366 11.718C12.6886 11.025 13.7446 9.342 13.7446 7.648V6.878H11.5116V6.152H13.7336V4.623H14.6356V6.152H16.8246V6.878H14.6356ZM18.4416 4.436H19.3436V14.325H18.4416V10.365H16.4396V9.617H18.4416V8.308H16.4396V7.571H18.4416V4.436ZM23.2917 7.648V9.463H28.3297V7.648H23.2917ZM26.2617 12.312H30.2877V13.049H21.3447V12.312H25.3487V10.189H22.4007V5.151H23.2917V6.911H28.3297V5.151H29.2097V10.189H26.2617V12.312ZM32.0469 5.514H36.6669C36.6669 8.363 35.3579 10.871 32.0799 12.477L31.5959 11.74C34.2469 10.475 35.5669 8.583 35.7539 6.24H32.0469V5.514ZM38.6579 4.447H39.5599V14.314H38.6579V4.447Z" fill="#777777"/>
<path d="M45.5 6.75L50 11.25L54.5 6.75" stroke="#777777" stroke-linecap="round" stroke-linejoin="round"/>
</svg>
