<svg width="375" height="139" viewBox="0 0 375 139" fill="none" xmlns="http://www.w3.org/2000/svg">
<path d="M124.707 93.468C125.439 93.468 125.955 92.88 125.955 91.98C125.955 91.08 125.439 90.48 124.707 90.48C123.975 90.48 123.459 91.08 123.459 91.98C123.459 92.88 123.975 93.468 124.707 93.468ZM124.707 89.46C126.075 89.46 127.059 90.48 127.059 91.98C127.059 93.468 126.075 94.5 124.707 94.5C123.339 94.5 122.355 93.468 122.355 91.98C122.355 90.48 123.339 89.46 124.707 89.46ZM125.319 86.4V87.852H127.347V88.848H122.043V87.852H124.095V86.4H125.319ZM130.119 86.088H131.295V96.924H130.119V91.596H128.967V96.42H127.815V86.316H128.967V90.576H130.119V86.088ZM139.322 90.36L139.454 91.368C138.038 91.656 136.754 91.728 134.402 91.728H133.526V86.868H138.35V87.876H134.762V90.72C136.838 90.708 138.002 90.648 139.322 90.36ZM138.074 95.928C139.574 95.928 140.462 95.52 140.462 94.788C140.462 94.056 139.574 93.66 138.074 93.66C136.574 93.66 135.686 94.056 135.686 94.788C135.686 95.52 136.574 95.928 138.074 95.928ZM138.074 92.664C140.294 92.664 141.686 93.468 141.686 94.788C141.686 96.12 140.294 96.936 138.074 96.936C135.854 96.936 134.462 96.12 134.462 94.788C134.462 93.468 135.854 92.664 138.074 92.664ZM141.59 88.788H143.102V89.808H141.59V92.448H140.33V86.088H141.59V88.788ZM153.141 91.044L152.493 92.016C151.329 91.596 150.465 90.768 150.009 89.748C149.529 90.924 148.641 91.86 147.393 92.316L146.733 91.332C148.437 90.744 149.361 89.268 149.361 87.708V86.64H150.609V87.804C150.609 89.196 151.533 90.516 153.141 91.044ZM151.809 95.952C153.321 95.952 154.197 95.58 154.197 94.884C154.197 94.212 153.321 93.828 151.809 93.828C150.297 93.828 149.421 94.212 149.421 94.884C149.421 95.58 150.297 95.952 151.809 95.952ZM151.809 92.856C154.053 92.856 155.421 93.612 155.421 94.884C155.421 96.168 154.053 96.924 151.809 96.924C149.577 96.924 148.197 96.168 148.197 94.884C148.197 93.612 149.577 92.856 151.809 92.856ZM155.301 88.764H156.837V89.784H155.301V92.592H154.065V86.076H155.301V88.764ZM164.012 89.388V87.396H161.516V89.388H164.012ZM160.28 89.388V87.396H158.744V86.4H166.772V87.396H165.248V89.388H166.712V90.384H158.804V89.388H160.28ZM165.272 95.808V94.332H160.268V95.808H165.272ZM167.672 92.244H163.388V93.348H166.484V96.792H159.044V93.348H162.152V92.244H157.868V91.248H167.672V92.244ZM172.411 86.844C174.103 86.844 175.363 87.912 175.363 89.448C175.363 90.984 174.103 92.052 172.411 92.052C170.719 92.052 169.471 90.984 169.471 89.448C169.471 87.912 170.719 86.844 172.411 86.844ZM172.411 87.9C171.415 87.9 170.683 88.5 170.683 89.448C170.683 90.384 171.415 90.996 172.411 90.996C173.419 90.996 174.151 90.384 174.151 89.448C174.151 88.5 173.419 87.9 172.411 87.9ZM176.587 86.076H177.835V96.936H176.587V86.076ZM169.123 94.644L168.967 93.624C170.911 93.624 173.611 93.612 175.939 93.264L176.023 94.164C173.635 94.62 171.043 94.644 169.123 94.644ZM191.905 87.276V88.26H183.133V87.276H186.925V86.064H188.161V87.276H191.905ZM189.865 90.624C189.865 90.036 189.061 89.724 187.549 89.724C186.037 89.724 185.221 90.036 185.221 90.624C185.221 91.212 186.037 91.536 187.549 91.536C189.061 91.536 189.865 91.212 189.865 90.624ZM183.937 90.624C183.937 89.448 185.293 88.788 187.549 88.788C189.805 88.788 191.161 89.448 191.161 90.624C191.161 91.8 189.805 92.46 187.549 92.46C185.293 92.46 183.937 91.8 183.937 90.624ZM192.469 93.108V94.104H188.161V96.936H186.925V94.104H182.641V93.108H192.469ZM194.304 87.228H199.44C199.44 90.456 198.144 93.192 194.424 94.992L193.764 94.008C196.608 92.64 197.952 90.732 198.168 88.236H194.304V87.228ZM201.396 86.088H202.632V96.924H201.396V86.088ZM205.259 87.228H210.287C210.287 90.372 208.943 93.156 205.403 94.944L204.719 93.996C207.371 92.64 208.799 90.732 209.051 88.236H205.259V87.228ZM214.763 90.36V91.392H213.119V96.912H211.883V86.076H213.119V90.36H214.763ZM219.798 89.052C219.798 89.964 220.482 90.564 221.43 90.564C222.378 90.564 223.074 89.964 223.074 89.052C223.074 88.152 222.378 87.564 221.43 87.564C220.482 87.564 219.798 88.152 219.798 89.052ZM226.206 89.544H224.202C223.962 90.768 222.87 91.584 221.43 91.584C219.81 91.584 218.61 90.552 218.61 89.052C218.61 87.576 219.81 86.544 221.43 86.544C222.858 86.544 223.95 87.336 224.19 88.524H226.206V86.1H227.442V91.824H226.206V89.544ZM222.378 95.844V94.584H220.83V95.844H222.378ZM222.378 92.448H223.518V96.792H219.678V92.448H220.83V93.672H222.378V92.448ZM226.65 92.364V93.228C226.65 94.38 227.25 95.484 228.558 95.964L227.946 96.9C226.986 96.528 226.362 95.832 226.026 95.004C225.666 95.82 225.054 96.516 224.142 96.9L223.518 95.964C224.814 95.424 225.426 94.296 225.426 93.228V92.364H226.65ZM232.421 93.42C233.357 93.42 233.993 92.412 233.993 90.696C233.993 89.016 233.357 87.996 232.421 87.996C231.497 87.996 230.861 89.016 230.861 90.696C230.861 92.412 231.497 93.42 232.421 93.42ZM237.257 86.076H238.505V96.948H237.257V91.128H235.157C235.013 93.228 233.909 94.524 232.421 94.524C230.825 94.524 229.685 93.048 229.685 90.696C229.685 88.368 230.825 86.88 232.421 86.88C233.873 86.88 234.977 88.128 235.145 90.12H237.257V86.076ZM244.072 92.232V94.584H246.808V92.22C246.388 92.328 245.92 92.376 245.44 92.376C244.96 92.376 244.492 92.328 244.072 92.232ZM245.44 87.684C243.796 87.684 242.656 88.404 242.656 89.544C242.656 90.696 243.796 91.416 245.44 91.416C247.072 91.416 248.212 90.696 248.212 89.544C248.212 88.404 247.072 87.684 245.44 87.684ZM248.044 94.584H250.36V95.592H240.544V94.584H242.836V91.764C241.972 91.284 241.456 90.504 241.456 89.544C241.456 87.816 243.124 86.712 245.44 86.712C247.744 86.712 249.424 87.816 249.424 89.544C249.424 90.504 248.908 91.272 248.044 91.764V94.584ZM252.759 96.156C252.243 96.156 251.835 95.76 251.835 95.196C251.835 94.62 252.243 94.212 252.759 94.212C253.275 94.212 253.683 94.62 253.683 95.196C253.683 95.76 253.275 96.156 252.759 96.156Z" fill="#999999"/>
<path d="M207.5 62.5C207.5 63.6493 207.043 64.7515 206.231 65.5641C205.418 66.3768 204.316 66.8333 203.167 66.8333H177.167L170.207 73.7929C169.577 74.4229 168.5 73.9767 168.5 73.0858V40.8333C168.5 39.6841 168.957 38.5819 169.769 37.7692C170.582 36.9565 171.684 36.5 172.833 36.5H203.167C204.316 36.5 205.418 36.9565 206.231 37.7692C207.043 38.5819 207.5 39.6841 207.5 40.8333V62.5Z" fill="#DDDDDC"/>
<path d="M194 45L182 57" stroke="white" stroke-width="2" stroke-linecap="round" stroke-linejoin="round"/>
<path d="M182 45L194 57" stroke="white" stroke-width="2" stroke-linecap="round" stroke-linejoin="round"/>
</svg>
