<svg width="78" height="50" viewBox="0 0 78 50" fill="none" xmlns="http://www.w3.org/2000/svg">
<path d="M46.3334 25.25V23.4167C46.3334 22.4442 45.947 21.5116 45.2594 20.8239C44.5718 20.1363 43.6391 19.75 42.6667 19.75H35.3334C34.3609 19.75 33.4283 20.1363 32.7406 20.8239C32.053 21.5116 31.6667 22.4442 31.6667 23.4167V25.25" stroke="#999999" stroke-linecap="round" stroke-linejoin="round"/>
<path d="M39 16.0833C41.025 16.0833 42.6666 14.4417 42.6666 12.4167C42.6666 10.3916 41.025 8.75 39 8.75C36.9749 8.75 35.3333 10.3916 35.3333 12.4167C35.3333 14.4417 36.9749 16.0833 39 16.0833Z" stroke="#999999" stroke-linecap="round" stroke-linejoin="round"/>
<path d="M22.5736 36.752V40.16H24.3256V36.752H22.5736ZM21.7576 40.816V36.096H25.1416V40.816H21.7576ZM28.2296 38.216V38.896H27.1016V42.624H26.2776V35.392H27.1016V38.216H28.2296ZM33.9809 35.384H34.8129V42.632H33.9809V35.384ZM30.9649 35.92C32.0449 35.92 32.8289 36.912 32.8289 38.464C32.8289 40.032 32.0449 41.016 30.9649 41.016C29.8929 41.016 29.1089 40.032 29.1089 38.464C29.1089 36.912 29.8929 35.92 30.9649 35.92ZM30.9649 36.664C30.3409 36.664 29.9009 37.344 29.9009 38.464C29.9009 39.6 30.3409 40.28 30.9649 40.28C31.5969 40.28 32.0369 39.6 32.0369 38.464C32.0369 37.344 31.5969 36.664 30.9649 36.664ZM37.5643 36.928V40.2C37.8043 40.192 38.0443 40.184 38.2923 40.168V36.928H37.5643ZM39.0443 36.928V40.12C39.2763 40.096 39.5083 40.072 39.7163 40.04L39.7723 40.64C38.6443 40.864 37.1563 40.896 36.2443 40.896L36.1483 40.216C36.3483 40.216 36.5723 40.216 36.8123 40.216V36.928H36.2923V36.264H39.5803V36.928H39.0443ZM40.2363 38.088V35.552H41.0123V42.256H40.2363V38.816H39.3803V38.088H40.2363ZM41.6523 35.392H42.4443V42.616H41.6523V35.392ZM48.6997 35.384H49.5317V42.632H48.6997V35.384ZM45.6837 35.92C46.7637 35.92 47.5477 36.912 47.5477 38.464C47.5477 40.032 46.7637 41.016 45.6837 41.016C44.6117 41.016 43.8277 40.032 43.8277 38.464C43.8277 36.912 44.6117 35.92 45.6837 35.92ZM45.6837 36.664C45.0597 36.664 44.6197 37.344 44.6197 38.464C44.6197 39.6 45.0597 40.28 45.6837 40.28C46.3157 40.28 46.7557 39.6 46.7557 38.464C46.7557 37.344 46.3157 36.664 45.6837 36.664ZM53.6111 36.792V37.48C53.6111 38.68 54.3551 39.928 55.4831 40.408L55.0271 41.056C54.1871 40.688 53.5391 39.904 53.2031 38.968C52.8831 39.976 52.2351 40.832 51.3871 41.24L50.9151 40.584C52.0351 40.064 52.7791 38.72 52.7791 37.48V36.792H51.1711V36.112H55.2191V36.792H53.6111ZM56.0591 35.392H56.8911V42.616H56.0591V35.392Z" fill="#999999"/>
</svg>
