<svg width="78" height="50" viewBox="0 0 78 50" fill="none" xmlns="http://www.w3.org/2000/svg">
<path d="M30.75 14.2502L39 7.8335L47.25 14.2502V24.3335C47.25 24.8197 47.0568 25.286 46.713 25.6299C46.3692 25.9737 45.9029 26.1668 45.4167 26.1668H32.5833C32.0971 26.1668 31.6308 25.9737 31.287 25.6299C30.9432 25.286 30.75 24.8197 30.75 24.3335V14.2502Z" stroke="#999999" stroke-linecap="round" stroke-linejoin="round"/>
<path d="M36.25 26.1667V17H41.75V26.1667" stroke="#999999" stroke-linecap="round" stroke-linejoin="round"/>
<path d="M41.8963 35.952V36.584H36.0483V35.952H38.5763V35.304H39.4083V35.952H41.8963ZM37.3203 41.072V41.912H40.6563V41.072H37.3203ZM36.5043 42.528V40.448H41.4643V42.528H36.5043ZM37.4963 37.848C37.4963 38.16 38.0083 38.312 38.9923 38.312C39.9683 38.312 40.4883 38.16 40.4883 37.848C40.4883 37.528 39.9683 37.384 38.9923 37.384C38.0083 37.384 37.4963 37.528 37.4963 37.848ZM39.4083 39.328H42.2563V39.976H35.7203V39.328H38.5763V38.872C37.3123 38.808 36.6163 38.456 36.6163 37.848C36.6163 37.168 37.4643 36.816 38.9923 36.816C40.5123 36.816 41.3603 37.168 41.3603 37.848C41.3603 38.456 40.6643 38.808 39.4083 38.872V39.328Z" fill="#999999"/>
</svg>
