<svg width="343" height="40" viewBox="0 0 343 40" fill="none" xmlns="http://www.w3.org/2000/svg">
<rect width="343" height="40" fill="#F7F7F6"/>
<path d="M17.216 25.156C15.824 25.156 14.948 24.592 14.324 23.98L14.984 23.08C15.488 23.584 16.124 24.028 17.048 24.028C18.044 24.028 18.8 23.32 18.8 22.144C18.8 20.968 18.128 20.296 17.12 20.296C16.556 20.296 16.22 20.464 15.704 20.8L15.032 20.356L15.296 16.168H19.772V17.332H16.496L16.292 19.6C16.664 19.408 17.024 19.288 17.504 19.288C18.98 19.288 20.192 20.164 20.192 22.096C20.192 24.052 18.764 25.156 17.216 25.156ZM24.2638 25.156C22.5238 25.156 21.4078 23.62 21.4078 20.548C21.4078 17.488 22.5238 16 24.2638 16C25.9918 16 27.1198 17.5 27.1198 20.548C27.1198 23.62 25.9918 25.156 24.2638 25.156ZM24.2638 24.064C25.1638 24.064 25.7998 23.104 25.7998 20.548C25.7998 18.016 25.1638 17.092 24.2638 17.092C23.3638 17.092 22.7278 18.016 22.7278 20.548C22.7278 23.104 23.3638 24.064 24.2638 24.064ZM28.6355 27.4L28.3235 26.62C29.1395 26.284 29.6195 25.684 29.6315 24.976C29.5835 24.988 29.5475 24.988 29.4995 24.988C29.0075 24.988 28.5755 24.676 28.5755 24.1C28.5755 23.56 29.0075 23.212 29.5355 23.212C30.2075 23.212 30.6035 23.776 30.6035 24.7C30.6035 25.96 29.8715 26.932 28.6355 27.4ZM34.6817 25.156C32.9417 25.156 31.8257 23.62 31.8257 20.548C31.8257 17.488 32.9417 16 34.6817 16C36.4097 16 37.5377 17.5 37.5377 20.548C37.5377 23.62 36.4097 25.156 34.6817 25.156ZM34.6817 24.064C35.5817 24.064 36.2177 23.104 36.2177 20.548C36.2177 18.016 35.5817 17.092 34.6817 17.092C33.7817 17.092 33.1457 18.016 33.1457 20.548C33.1457 23.104 33.7817 24.064 34.6817 24.064ZM41.5255 25.156C39.7855 25.156 38.6695 23.62 38.6695 20.548C38.6695 17.488 39.7855 16 41.5255 16C43.2535 16 44.3815 17.5 44.3815 20.548C44.3815 23.62 43.2535 25.156 41.5255 25.156ZM41.5255 24.064C42.4255 24.064 43.0615 23.104 43.0615 20.548C43.0615 18.016 42.4255 17.092 41.5255 17.092C40.6255 17.092 39.9895 18.016 39.9895 20.548C39.9895 23.104 40.6255 24.064 41.5255 24.064ZM48.3692 25.156C46.6292 25.156 45.5132 23.62 45.5132 20.548C45.5132 17.488 46.6292 16 48.3692 16C50.0972 16 51.2252 17.5 51.2252 20.548C51.2252 23.62 50.0972 25.156 48.3692 25.156ZM48.3692 24.064C49.2692 24.064 49.9052 23.104 49.9052 20.548C49.9052 18.016 49.2692 17.092 48.3692 17.092C47.4692 17.092 46.8332 18.016 46.8332 20.548C46.8332 23.104 47.4692 24.064 48.3692 24.064ZM58.021 21.448H60.145V15.076H61.381V23.32H60.145V22.312H58.021V21.448ZM55.861 16.408C54.961 16.408 54.349 16.792 54.349 17.404C54.349 18.016 54.961 18.4 55.861 18.4C56.749 18.4 57.361 18.016 57.361 17.404C57.361 16.792 56.749 16.408 55.861 16.408ZM55.861 19.312C54.265 19.312 53.173 18.556 53.173 17.404C53.173 16.252 54.265 15.496 55.861 15.496C57.445 15.496 58.537 16.252 58.537 17.404C58.537 18.556 57.445 19.312 55.861 19.312ZM55.369 22.972V20.956C54.337 21.004 53.353 21.016 52.501 21.016L52.345 20.008C54.337 19.996 57.001 19.972 59.293 19.684L59.389 20.572C58.477 20.728 57.529 20.836 56.605 20.884V22.972H55.369ZM55.045 24.712H61.633V25.72H53.809V22.516H55.045V24.712Z" fill="#FB7800"/>
<path d="M68.608 20.896L68.176 19.924C70.276 19.672 71.764 18.532 71.872 17.368H68.536V16.372H71.884V15.088H73.12V16.372H76.48V17.368H73.132C73.24 18.52 74.728 19.672 76.828 19.924L76.384 20.896C74.62 20.668 73.204 19.864 72.496 18.784C71.8 19.864 70.384 20.656 68.608 20.896ZM77.404 21.604V22.624H73.12V25.948H71.884V22.624H67.612V21.604H77.404ZM79.1791 16.228H84.2071C84.2071 19.372 82.8631 22.156 79.3231 23.944L78.6391 22.996C81.2911 21.64 82.7191 19.732 82.9711 17.236H79.1791V16.228ZM88.6831 19.36V20.392H87.0391V25.912H85.8031V15.076H87.0391V19.36H88.6831ZM102.189 20.38V21.4H97.8694V25.924H96.6214V21.4H92.3854V20.38H99.4294C99.7414 18.868 99.7414 17.74 99.7414 16.744H93.5614V15.748H100.953V16.696C100.953 17.716 100.953 18.844 100.677 20.38H102.189ZM104.937 17.26V22.12H106.809V17.26H104.937ZM103.785 23.104V16.276H107.961V23.104H103.785ZM111.501 15.088H112.677V25.912H111.501V20.32H110.265V25.408H109.101V15.292H110.265V19.312H111.501V15.088ZM118.46 15.988V17.764C118.46 19.756 119.564 21.748 121.268 22.516L120.548 23.5C119.3 22.912 118.352 21.712 117.86 20.248C117.368 21.82 116.408 23.104 115.1 23.74L114.368 22.708C116.096 21.928 117.224 19.852 117.224 17.764V15.988H118.46ZM122.132 15.076H123.38V25.948H122.132V15.076Z" fill="#1C1C1C"/>
<path d="M161.288 18.256V19.252H153.836V15.46H161.216V16.456H155.06V18.256H161.288ZM157.484 24.964C159.068 24.964 159.968 24.616 159.968 23.944C159.968 23.284 159.068 22.924 157.484 22.924C155.9 22.924 155.012 23.284 155.012 23.944C155.012 24.616 155.9 24.964 157.484 24.964ZM157.484 21.976C159.812 21.976 161.216 22.696 161.216 23.944C161.216 25.204 159.812 25.924 157.484 25.924C155.168 25.924 153.752 25.204 153.752 23.944C153.752 22.696 155.168 21.976 157.484 21.976ZM152.624 20.152H162.416V21.172H152.624V20.152ZM170.995 24.796V23.536H166.099V24.796H170.995ZM170.995 22.576V21.28H172.231V25.792H164.875V21.28H166.099V22.576H170.995ZM171.979 19.42H173.467V20.428H163.651V19.42H170.755C171.007 18.232 171.031 17.344 171.031 16.552H164.887V15.556H172.243V16.384C172.243 17.224 172.243 18.136 171.979 19.42ZM183.589 18.832L183.733 19.804C182.257 20.116 180.949 20.188 178.681 20.188H177.805V15.688H182.629V16.672H179.041V19.192C181.033 19.18 182.245 19.108 183.589 18.832ZM180.085 23.836V24.808H186.205V25.792H178.873V22.9H184.621V22H178.849V21.004H185.845V23.836H180.085ZM185.845 17.26H187.381V18.28H185.845V20.512H184.609V15.088H185.845V17.26ZM196.165 21.472V18.256H193.969V17.248H196.165V15.076H197.401V21.472H196.165ZM194.857 20.068L194.197 21.04C193.033 20.62 192.193 19.804 191.725 18.748C191.245 19.948 190.333 20.896 189.025 21.364L188.377 20.368C190.117 19.78 191.065 18.316 191.065 16.732V15.664H192.313V16.672C192.313 18.172 193.213 19.528 194.857 20.068ZM193.789 24.952C195.325 24.952 196.213 24.556 196.213 23.848C196.213 23.14 195.325 22.744 193.789 22.744C192.253 22.744 191.377 23.14 191.377 23.848C191.377 24.556 192.253 24.952 193.789 24.952ZM193.789 21.772C196.057 21.772 197.449 22.54 197.449 23.848C197.449 25.156 196.057 25.924 193.789 25.924C191.533 25.924 190.141 25.156 190.141 23.848C190.141 22.54 191.533 21.772 193.789 21.772ZM200.448 22.18L200.256 17.38L200.22 15.964H201.612L201.564 17.38L201.372 22.18H200.448ZM200.904 25.156C200.388 25.156 199.992 24.76 199.992 24.196C199.992 23.632 200.388 23.212 200.904 23.212C201.432 23.212 201.84 23.632 201.84 24.196C201.84 24.76 201.432 25.156 200.904 25.156Z" fill="#1C1C1C"/>
<path d="M136.54 15.088V20.644H135.292V15.088H136.54ZM134.2 19.432L133.6 20.404C132.352 19.996 131.44 19.168 130.948 18.1C130.456 19.264 129.532 20.164 128.224 20.608L127.612 19.624C129.328 19.06 130.3 17.656 130.3 16.192V15.376H131.56V16.192C131.56 17.596 132.532 18.916 134.2 19.432ZM130.672 24.856H136.864V25.828H129.46V23.008H135.316V22.12H129.436V21.16H136.54V23.908H130.672V24.856ZM142.923 22.288V19.636H140.283V22.288H142.923ZM146.403 15.064L147.651 15.076V25.948H146.403V20.008H144.135V23.296H139.059V15.928H140.283V18.664H142.923V15.94H144.135V19.012H146.403V15.064Z" fill="#1C1C1C"/>
<path d="M323 26L329 20L323 14" stroke="#1C1C1C" stroke-linecap="round" stroke-linejoin="round"/>
</svg>
