<svg width="48" height="48" viewBox="0 0 48 48" fill="none" xmlns="http://www.w3.org/2000/svg">
<rect width="48" height="48" rx="24" fill="#BF9473"/>
<path d="M17.5513 34.2764V15.1865H25.7251C30.0757 15.1865 32.3564 17.0718 32.3696 19.9854C32.3564 22.0947 30.8799 23.7031 28.7046 24.1514V24.3359C31.1172 24.415 33.1079 26.1685 33.1079 28.8975C33.1079 32.0088 30.5767 34.2764 26.4106 34.2764H17.5513ZM22.561 30.2422H25.1187C26.9248 30.2554 27.8081 29.5566 27.8081 28.2646C27.8081 26.8804 26.8062 26.0762 25.1978 26.0762H22.561V30.2422ZM22.561 22.9385H24.8022C26.2129 22.9385 27.2017 22.2529 27.2017 21.04C27.2017 19.8271 26.2393 19.1416 24.8813 19.1416H22.561V22.9385Z" fill="white"/>
</svg>
