<svg width="66" height="24" viewBox="0 0 66 24" fill="none" xmlns="http://www.w3.org/2000/svg">
<rect x="0.5" y="0.5" width="65" height="23" rx="11.5" fill="white"/>
<path d="M18.8385 10.01H20.4385V7.74H21.4685V13.12H20.4385V10.85H18.8385V10.01ZM19.3585 12.02L18.8485 12.83C17.8485 12.48 17.1285 11.77 16.7485 10.9C16.3485 11.89 15.5885 12.69 14.5185 13.07L13.9885 12.25C15.3885 11.75 16.1985 10.55 16.1985 9.31V9.18H14.2885V8.35H19.1185V9.18H17.2385V9.3C17.2385 10.43 18.0085 11.55 19.3585 12.02ZM18.4685 15.98C19.7385 15.98 20.4785 15.66 20.4785 15.07C20.4785 14.48 19.7385 14.16 18.4685 14.16C17.1785 14.16 16.4485 14.48 16.4485 15.07C16.4485 15.66 17.1785 15.98 18.4685 15.98ZM18.4685 13.36C20.3485 13.36 21.5085 14 21.5085 15.07C21.5085 16.15 20.3485 16.78 18.4685 16.78C16.5785 16.78 15.4185 16.15 15.4185 15.07C15.4185 14 16.5785 13.36 18.4685 13.36ZM25.1277 10.69V12.17H29.4077V10.69H25.1277ZM27.7777 14.82H31.3677V15.67H23.1877V14.82H26.7477V13H24.1077V8.34H25.1277V9.86H29.4077V8.34H30.4277V13H27.7777V14.82ZM42.443 11.07L42.043 11.9C40.543 11.66 39.313 10.9 38.723 9.86C38.143 10.91 36.893 11.66 35.393 11.9L34.993 11.07C36.833 10.81 38.173 9.7 38.173 8.51V8.03H39.263V8.51C39.263 9.68 40.623 10.81 42.443 11.07ZM42.793 12.75V13.59H39.203V16.78H38.173V13.59H34.633V12.75H42.793ZM48.6823 10.01H50.2823V7.74H51.3123V13.12H50.2823V10.85H48.6823V10.01ZM49.2023 12.02L48.6923 12.83C47.6923 12.48 46.9723 11.77 46.5923 10.9C46.1923 11.89 45.4323 12.69 44.3623 13.07L43.8323 12.25C45.2323 11.75 46.0423 10.55 46.0423 9.31V9.18H44.1323V8.35H48.9623V9.18H47.0823V9.3C47.0823 10.43 47.8523 11.55 49.2023 12.02ZM48.3123 15.98C49.5823 15.98 50.3223 15.66 50.3223 15.07C50.3223 14.48 49.5823 14.16 48.3123 14.16C47.0223 14.16 46.2923 14.48 46.2923 15.07C46.2923 15.66 47.0223 15.98 48.3123 15.98ZM48.3123 13.36C50.1923 13.36 51.3523 14 51.3523 15.07C51.3523 16.15 50.1923 16.78 48.3123 16.78C46.4223 16.78 45.2623 16.15 45.2623 15.07C45.2623 14 46.4223 13.36 48.3123 13.36Z" fill="#777777"/>
<rect x="0.5" y="0.5" width="65" height="23" rx="11.5" stroke="#999999"/>
</svg>
