<svg width="28" height="28" viewBox="0 0 28 28" fill="none" xmlns="http://www.w3.org/2000/svg">
<path d="M17.5 11.6667C18.4665 11.6667 19.25 10.8832 19.25 9.91675C19.25 8.95025 18.4665 8.16675 17.5 8.16675C16.5335 8.16675 15.75 8.95025 15.75 9.91675C15.75 10.8832 16.5335 11.6667 17.5 11.6667Z" fill="#DDDDDC" stroke="#DDDDDC" stroke-linecap="round" stroke-linejoin="round"/>
<path d="M10.5 15.75C11.4665 15.75 12.25 14.9665 12.25 14C12.25 13.0335 11.4665 12.25 10.5 12.25C9.5335 12.25 8.75 13.0335 8.75 14C8.75 14.9665 9.5335 15.75 10.5 15.75Z" fill="#DDDDDC" stroke="#DDDDDC" stroke-linecap="round" stroke-linejoin="round"/>
<path d="M17.5 19.8333C18.4665 19.8333 19.25 19.0498 19.25 18.0833C19.25 17.1168 18.4665 16.3333 17.5 16.3333C16.5335 16.3333 15.75 17.1168 15.75 18.0833C15.75 19.0498 16.5335 19.8333 17.5 19.8333Z" fill="#DDDDDC" stroke="#DDDDDC" stroke-linecap="round" stroke-linejoin="round"/>
<path d="M12.0108 14.8809L15.995 17.2025" stroke="#DDDDDC" stroke-linecap="round" stroke-linejoin="round"/>
<path d="M15.9892 10.7976L12.0108 13.1193" stroke="#DDDDDC" stroke-linecap="round" stroke-linejoin="round"/>
</svg>
