<svg width="100" height="100" viewBox="0 0 100 100" fill="none" xmlns="http://www.w3.org/2000/svg">
<circle opacity="0.7" cx="50" cy="50" r="50" fill="#1C1C1C"/>
<path d="M19.6172 52.0703C19.6172 51.8359 19.5807 51.6276 19.5078 51.4453C19.4401 51.263 19.3177 51.0964 19.1406 50.9453C18.9635 50.7943 18.7135 50.6484 18.3906 50.5078C18.0729 50.362 17.6667 50.2135 17.1719 50.0625C16.6302 49.8958 16.1302 49.7109 15.6719 49.5078C15.2188 49.2995 14.8229 49.0599 14.4844 48.7891C14.1458 48.513 13.8828 48.1979 13.6953 47.8438C13.5078 47.4844 13.4141 47.0703 13.4141 46.6016C13.4141 46.138 13.5104 45.7161 13.7031 45.3359C13.901 44.9557 14.1797 44.6276 14.5391 44.3516C14.9036 44.0703 15.3333 43.8542 15.8281 43.7031C16.3229 43.5469 16.8698 43.4688 17.4688 43.4688C18.3125 43.4688 19.0391 43.625 19.6484 43.9375C20.263 44.25 20.7344 44.6693 21.0625 45.1953C21.3958 45.7214 21.5625 46.3021 21.5625 46.9375H19.6172C19.6172 46.5625 19.5365 46.2318 19.375 45.9453C19.2188 45.6536 18.9792 45.4245 18.6562 45.2578C18.3385 45.0911 17.9349 45.0078 17.4453 45.0078C16.9818 45.0078 16.5964 45.0781 16.2891 45.2188C15.9818 45.3594 15.7526 45.5495 15.6016 45.7891C15.4505 46.0286 15.375 46.2995 15.375 46.6016C15.375 46.8151 15.4245 47.0104 15.5234 47.1875C15.6224 47.3594 15.7734 47.5208 15.9766 47.6719C16.1797 47.8177 16.4349 47.9557 16.7422 48.0859C17.0495 48.2161 17.4115 48.3411 17.8281 48.4609C18.4583 48.6484 19.0078 48.8568 19.4766 49.0859C19.9453 49.3099 20.3359 49.5651 20.6484 49.8516C20.9609 50.138 21.1953 50.4635 21.3516 50.8281C21.5078 51.1875 21.5859 51.5964 21.5859 52.0547C21.5859 52.5339 21.4896 52.9661 21.2969 53.3516C21.1042 53.7318 20.8281 54.0573 20.4688 54.3281C20.1146 54.5938 19.6875 54.7995 19.1875 54.9453C18.6927 55.0859 18.1406 55.1562 17.5312 55.1562C16.9844 55.1562 16.4453 55.0833 15.9141 54.9375C15.388 54.7917 14.9089 54.5703 14.4766 54.2734C14.0443 53.9714 13.7005 53.5964 13.4453 53.1484C13.1901 52.6953 13.0625 52.1667 13.0625 51.5625H15.0234C15.0234 51.9323 15.0859 52.2474 15.2109 52.5078C15.3411 52.7682 15.5208 52.9818 15.75 53.1484C15.9792 53.3099 16.2448 53.4297 16.5469 53.5078C16.8542 53.5859 17.1823 53.625 17.5312 53.625C17.9896 53.625 18.3724 53.5599 18.6797 53.4297C18.9922 53.2995 19.2266 53.1172 19.3828 52.8828C19.5391 52.6484 19.6172 52.3776 19.6172 52.0703ZM32.3906 49V49.625C32.3906 50.4844 32.2786 51.2552 32.0547 51.9375C31.8307 52.6198 31.5104 53.2005 31.0938 53.6797C30.6823 54.1589 30.1875 54.526 29.6094 54.7812C29.0312 55.0312 28.3906 55.1562 27.6875 55.1562C26.9896 55.1562 26.3516 55.0312 25.7734 54.7812C25.2005 54.526 24.7031 54.1589 24.2812 53.6797C23.8594 53.2005 23.5312 52.6198 23.2969 51.9375C23.0677 51.2552 22.9531 50.4844 22.9531 49.625V49C22.9531 48.1406 23.0677 47.3724 23.2969 46.6953C23.526 46.013 23.849 45.4323 24.2656 44.9531C24.6875 44.4688 25.1849 44.1016 25.7578 43.8516C26.3359 43.5964 26.974 43.4688 27.6719 43.4688C28.375 43.4688 29.0156 43.5964 29.5938 43.8516C30.1719 44.1016 30.6693 44.4688 31.0859 44.9531C31.5026 45.4323 31.8229 46.013 32.0469 46.6953C32.276 47.3724 32.3906 48.1406 32.3906 49ZM30.4297 49.625V48.9844C30.4297 48.349 30.3672 47.7891 30.2422 47.3047C30.1224 46.8151 29.9427 46.4062 29.7031 46.0781C29.4688 45.7448 29.1797 45.4948 28.8359 45.3281C28.4922 45.1562 28.1042 45.0703 27.6719 45.0703C27.2396 45.0703 26.8542 45.1562 26.5156 45.3281C26.1771 45.4948 25.888 45.7448 25.6484 46.0781C25.4141 46.4062 25.2344 46.8151 25.1094 47.3047C24.9844 47.7891 24.9219 48.349 24.9219 48.9844V49.625C24.9219 50.2604 24.9844 50.8229 25.1094 51.3125C25.2344 51.8021 25.4167 52.2161 25.6562 52.5547C25.901 52.888 26.1927 53.1406 26.5312 53.3125C26.8698 53.4792 27.2552 53.5625 27.6875 53.5625C28.125 53.5625 28.513 53.4792 28.8516 53.3125C29.1901 53.1406 29.4766 52.888 29.7109 52.5547C29.9453 52.2161 30.1224 51.8021 30.2422 51.3125C30.3672 50.8229 30.4297 50.2604 30.4297 49.625ZM41.4766 53.4453V55H35.7656V53.4453H41.4766ZM36.3125 43.625V55H34.3516V43.625H36.3125ZM46.2969 55H43.8672L43.8828 53.4453H46.2969C47 53.4453 47.5885 53.2917 48.0625 52.9844C48.5417 52.6771 48.901 52.237 49.1406 51.6641C49.3854 51.0911 49.5078 50.4089 49.5078 49.6172V49C49.5078 48.3854 49.4375 47.8411 49.2969 47.3672C49.1615 46.8932 48.9583 46.4948 48.6875 46.1719C48.4219 45.849 48.0938 45.6042 47.7031 45.4375C47.3177 45.2708 46.8724 45.1875 46.3672 45.1875H43.8203V43.625H46.3672C47.1224 43.625 47.8125 43.7526 48.4375 44.0078C49.0625 44.2578 49.6016 44.6198 50.0547 45.0938C50.513 45.5677 50.8646 46.1354 51.1094 46.7969C51.3542 47.4583 51.4766 48.1979 51.4766 49.0156V49.6172C51.4766 50.4349 51.3542 51.1745 51.1094 51.8359C50.8646 52.4974 50.513 53.0651 50.0547 53.5391C49.5964 54.0078 49.0495 54.3698 48.4141 54.625C47.7839 54.875 47.0781 55 46.2969 55ZM44.9531 43.625V55H42.9922V43.625H44.9531ZM66.5 49V49.625C66.5 50.4844 66.388 51.2552 66.1641 51.9375C65.9401 52.6198 65.6198 53.2005 65.2031 53.6797C64.7917 54.1589 64.2969 54.526 63.7188 54.7812C63.1406 55.0312 62.5 55.1562 61.7969 55.1562C61.099 55.1562 60.4609 55.0312 59.8828 54.7812C59.3099 54.526 58.8125 54.1589 58.3906 53.6797C57.9688 53.2005 57.6406 52.6198 57.4062 51.9375C57.1771 51.2552 57.0625 50.4844 57.0625 49.625V49C57.0625 48.1406 57.1771 47.3724 57.4062 46.6953C57.6354 46.013 57.9583 45.4323 58.375 44.9531C58.7969 44.4688 59.2943 44.1016 59.8672 43.8516C60.4453 43.5964 61.0833 43.4688 61.7812 43.4688C62.4844 43.4688 63.125 43.5964 63.7031 43.8516C64.2812 44.1016 64.7786 44.4688 65.1953 44.9531C65.612 45.4323 65.9323 46.013 66.1562 46.6953C66.3854 47.3724 66.5 48.1406 66.5 49ZM64.5391 49.625V48.9844C64.5391 48.349 64.4766 47.7891 64.3516 47.3047C64.2318 46.8151 64.0521 46.4062 63.8125 46.0781C63.5781 45.7448 63.2891 45.4948 62.9453 45.3281C62.6016 45.1562 62.2135 45.0703 61.7812 45.0703C61.349 45.0703 60.9635 45.1562 60.625 45.3281C60.2865 45.4948 59.9974 45.7448 59.7578 46.0781C59.5234 46.4062 59.3438 46.8151 59.2188 47.3047C59.0938 47.7891 59.0312 48.349 59.0312 48.9844V49.625C59.0312 50.2604 59.0938 50.8229 59.2188 51.3125C59.3438 51.8021 59.526 52.2161 59.7656 52.5547C60.0104 52.888 60.3021 53.1406 60.6406 53.3125C60.9792 53.4792 61.3646 53.5625 61.7969 53.5625C62.2344 53.5625 62.6224 53.4792 62.9609 53.3125C63.2995 53.1406 63.5859 52.888 63.8203 52.5547C64.0547 52.2161 64.2318 51.8021 64.3516 51.3125C64.4766 50.8229 64.5391 50.2604 64.5391 49.625ZM74.8438 43.625H76.7969V51.2266C76.7969 52.0911 76.6094 52.8151 76.2344 53.3984C75.8594 53.9818 75.349 54.4219 74.7031 54.7188C74.0625 55.0104 73.3464 55.1562 72.5547 55.1562C71.737 55.1562 71.0078 55.0104 70.3672 54.7188C69.7266 54.4219 69.2214 53.9818 68.8516 53.3984C68.487 52.8151 68.3047 52.0911 68.3047 51.2266V43.625H70.2578V51.2266C70.2578 51.7734 70.3516 52.224 70.5391 52.5781C70.7266 52.9271 70.9922 53.1849 71.3359 53.3516C71.6797 53.5182 72.0859 53.6016 72.5547 53.6016C73.0234 53.6016 73.4271 53.5182 73.7656 53.3516C74.1094 53.1849 74.375 52.9271 74.5625 52.5781C74.75 52.224 74.8438 51.7734 74.8438 51.2266V43.625ZM83.6094 43.625V55H81.6641V43.625H83.6094ZM87.1797 43.625V45.1875H78.125V43.625H87.1797Z" fill="white"/>
</svg>
