<svg width="57" height="10" viewBox="0 0 57 10" fill="none" xmlns="http://www.w3.org/2000/svg">
<path d="M5.7 0L7.4613 3.29127L11.4 3.82229L8.55 6.38275L9.2226 10L5.7 8.29127L2.1774 10L2.85 6.38275L0 3.82229L3.9387 3.29127L5.7 0Z" fill="#FF8300"/>
<path d="M17.0999 0L18.8612 3.29127L22.7999 3.82229L19.9499 6.38275L20.6225 10L17.0999 8.29127L13.5773 10L14.2499 6.38275L11.3999 3.82229L15.3386 3.29127L17.0999 0Z" fill="#FF8300"/>
<path d="M28.4998 0L30.2611 3.29127L34.1998 3.82229L31.3498 6.38275L32.0224 10L28.4998 8.29127L24.9772 10L25.6498 6.38275L22.7998 3.82229L26.7385 3.29127L28.4998 0Z" fill="#FF8300"/>
<path d="M39.9002 0L41.6615 3.29127L45.6002 3.82229L42.7502 6.38275L43.4228 10L39.9002 8.29127L36.3776 10L37.0502 6.38275L34.2002 3.82229L38.1389 3.29127L39.9002 0Z" fill="#FF8300"/>
<path d="M51.3001 0L53.0614 3.29127L57.0001 3.82229L54.1501 6.38275L54.8227 10L51.3001 8.29127L47.7775 10L48.4501 6.38275L45.6001 3.82229L49.5388 3.29127L51.3001 0Z" fill="#DDDDDC"/>
</svg>
