<svg width="30" height="15" viewBox="0 0 30 15" fill="none" xmlns="http://www.w3.org/2000/svg">
<rect width="30" height="15" rx="7.5" fill="#FFB800"/>
<path d="M6.206 7.922L5.882 7.193C7.457 7.004 8.573 6.149 8.654 5.276H6.152V4.529H8.663V3.575H9.59V4.529H12.11V5.276H9.599C9.68 6.14 10.796 7.004 12.371 7.193L12.038 7.922C10.715 7.751 9.653 7.148 9.122 6.338C8.6 7.148 7.538 7.742 6.206 7.922ZM12.803 8.453V9.218H9.59V11.711H8.663V9.218H5.459V8.453H12.803ZM18.0493 6.005H19.5433V3.575H20.4703V9.614H19.5433V6.77H18.0493V6.005ZM18.5713 7.823L18.1213 8.552C17.2033 8.264 16.5193 7.67 16.1593 6.905C15.7993 7.733 15.1243 8.381 14.1793 8.696L13.7203 7.976C14.9713 7.553 15.6733 6.563 15.6733 5.492V5.339H13.9633V4.592H15.6733V3.62H16.6093V4.592H18.3103V5.339H16.6003V5.492C16.6003 6.491 17.3203 7.436 18.5713 7.823ZM16.1323 10.784H20.6773V11.54H15.2053V9.092H16.1323V10.784ZM22.7556 8.885L22.6116 5.285L22.5846 4.214H23.6286L23.5926 5.285L23.4486 8.885H22.7556ZM23.0976 11.117C22.7106 11.117 22.4136 10.82 22.4136 10.397C22.4136 9.965 22.7106 9.659 23.0976 9.659C23.4936 9.659 23.7996 9.965 23.7996 10.397C23.7996 10.82 23.4936 11.117 23.0976 11.117Z" fill="white"/>
</svg>
