<svg width="33" height="15" viewBox="0 0 33 15" fill="none" xmlns="http://www.w3.org/2000/svg">
<rect width="33" height="15" rx="7.5" fill="#FF8300"/>
<path d="M5.873 11V4.367H7.925C9.284 4.367 10.265 4.808 10.265 6.005C10.265 6.635 9.914 7.238 9.32 7.436V7.481C10.076 7.643 10.625 8.156 10.625 9.056C10.625 10.37 9.554 11 8.087 11H5.873ZM6.917 7.139H7.808C8.816 7.139 9.239 6.761 9.239 6.14C9.239 5.447 8.771 5.186 7.835 5.186H6.917V7.139ZM6.917 10.181H7.97C9.005 10.181 9.599 9.812 9.599 9.002C9.599 8.255 9.023 7.922 7.97 7.922H6.917V10.181ZM11.8759 11V4.367H15.7909V5.249H12.9199V7.094H15.3499V7.976H12.9199V10.118H15.8899V11H11.8759ZM19.1624 11.117C18.2534 11.117 17.4074 10.757 16.8044 10.145L17.4164 9.425C17.8934 9.902 18.5414 10.208 19.1804 10.208C19.9814 10.208 20.4314 9.83 20.4314 9.272C20.4314 8.669 19.9814 8.48 19.3694 8.21L18.4514 7.814C17.8124 7.544 17.1014 7.04 17.1014 6.077C17.1014 5.033 18.0194 4.25 19.2794 4.25C20.0534 4.25 20.7824 4.574 21.2864 5.087L20.7374 5.753C20.3234 5.384 19.8644 5.159 19.2794 5.159C18.6044 5.159 18.1634 5.483 18.1634 6.005C18.1634 6.581 18.6944 6.797 19.2344 7.013L20.1434 7.4C20.9264 7.733 21.4934 8.219 21.4934 9.191C21.4934 10.253 20.6114 11.117 19.1624 11.117ZM23.8959 11V5.249H21.9519V4.367H26.8929V5.249H24.9399V11H23.8959Z" fill="white"/>
</svg>
