<svg width="30" height="15" viewBox="0 0 30 15" fill="none" xmlns="http://www.w3.org/2000/svg">
<rect width="30" height="15" rx="7.5" fill="#42BEEF"/>
<path d="M10.7261 4.60156V11H9.62305L6.75342 6.4165V11H5.65039V4.60156H6.75342L9.63184 9.19385V4.60156H10.7261ZM16.228 10.1255V11H12.8311V10.1255H16.228ZM13.1431 4.60156V11H12.04V4.60156H13.1431ZM15.7842 7.27344V8.13477H12.8311V7.27344H15.7842ZM16.2061 4.60156V5.48047H12.8311V4.60156H16.2061ZM18.7329 9.56299L20.0073 4.60156H20.6753L20.6006 5.88037L19.2383 11H18.5439L18.7329 9.56299ZM17.7793 4.60156L18.812 9.52344L18.9043 11H18.166L16.6851 4.60156H17.7793ZM22.1211 9.51025L23.1406 4.60156H24.2393L22.7583 11H22.02L22.1211 9.51025ZM20.9346 4.60156L22.1958 9.57617L22.3804 11H21.686L20.3457 5.88037L20.2754 4.60156H20.9346Z" fill="white"/>
</svg>
