<svg width="27" height="15" viewBox="0 0 27 15" fill="none" xmlns="http://www.w3.org/2000/svg">
<rect width="27" height="15" rx="7.5" fill="#1C1C1C"/>
<path d="M10.058 6.041V4.547H8.186V6.041H10.058ZM7.259 6.041V4.547H6.107V3.8H12.128V4.547H10.985V6.041H12.083V6.788H6.152V6.041H7.259ZM11.003 10.856V9.749H7.25V10.856H11.003ZM12.803 8.183H9.59V9.011H11.912V11.594H6.332V9.011H8.663V8.183H5.45V7.436H12.803V8.183ZM18.1033 5.312H19.5343V3.566H20.4703V7.733H19.5343V6.068H18.1033V5.312ZM18.5353 6.968L18.1033 7.688C17.1943 7.4 16.5283 6.815 16.1773 6.086C15.8173 6.896 15.1243 7.562 14.1703 7.868L13.7203 7.148C14.9623 6.734 15.7003 5.726 15.7003 4.763V4.682H13.9903V3.935H18.3373V4.682H16.6363V4.772C16.6363 5.69 17.3383 6.59 18.5353 6.968ZM16.1053 10.883H20.7403V11.612H15.1873V9.479H19.5523V8.831H15.1783V8.102H20.4703V10.163H16.1053V10.883Z" fill="white"/>
</svg>
