<svg width="40" height="40" viewBox="0 0 40 40" fill="none" xmlns="http://www.w3.org/2000/svg">
<circle cx="20" cy="20" r="19.5" fill="white" fill-opacity="0.7" stroke="#DDDDDC"/>
<path d="M23.5 16.75L20 13.25L16.5 16.75" stroke="#555555" stroke-linecap="round" stroke-linejoin="round"/>
<path d="M14.9427 22.3125V28H13.97V22.3125H14.9427ZM16.7278 22.3125V23.0938H12.2005V22.3125H16.7278ZM22.1836 25V25.3125C22.1836 25.7422 22.1276 26.1276 22.0156 26.4688C21.9036 26.8099 21.7435 27.1003 21.5352 27.3398C21.3294 27.5794 21.082 27.763 20.793 27.8906C20.5039 28.0156 20.1836 28.0781 19.832 28.0781C19.4831 28.0781 19.1641 28.0156 18.875 27.8906C18.5885 27.763 18.3398 27.5794 18.1289 27.3398C17.918 27.1003 17.7539 26.8099 17.6367 26.4688C17.5221 26.1276 17.4648 25.7422 17.4648 25.3125V25C17.4648 24.5703 17.5221 24.1862 17.6367 23.8477C17.7513 23.5065 17.9128 23.2161 18.1211 22.9766C18.332 22.7344 18.5807 22.5508 18.8672 22.4258C19.1562 22.2982 19.4753 22.2344 19.8242 22.2344C20.1758 22.2344 20.4961 22.2982 20.7852 22.4258C21.0742 22.5508 21.3229 22.7344 21.5312 22.9766C21.7396 23.2161 21.8997 23.5065 22.0117 23.8477C22.1263 24.1862 22.1836 24.5703 22.1836 25ZM21.2031 25.3125V24.9922C21.2031 24.6745 21.1719 24.3945 21.1094 24.1523C21.0495 23.9076 20.9596 23.7031 20.8398 23.5391C20.7227 23.3724 20.5781 23.2474 20.4062 23.1641C20.2344 23.0781 20.0404 23.0352 19.8242 23.0352C19.6081 23.0352 19.4154 23.0781 19.2461 23.1641C19.0768 23.2474 18.9323 23.3724 18.8125 23.5391C18.6953 23.7031 18.6055 23.9076 18.543 24.1523C18.4805 24.3945 18.4492 24.6745 18.4492 24.9922V25.3125C18.4492 25.6302 18.4805 25.9115 18.543 26.1562C18.6055 26.401 18.6966 26.6081 18.8164 26.7773C18.9388 26.944 19.0846 27.0703 19.2539 27.1562C19.4232 27.2396 19.6159 27.2812 19.832 27.2812C20.0508 27.2812 20.2448 27.2396 20.4141 27.1562C20.5833 27.0703 20.7266 26.944 20.8438 26.7773C20.9609 26.6081 21.0495 26.401 21.1094 26.1562C21.1719 25.9115 21.2031 25.6302 21.2031 25.3125ZM25.6042 25.8789H24.1238V25.1016H25.6042C25.862 25.1016 26.0704 25.0599 26.2292 24.9766C26.3881 24.8932 26.504 24.7786 26.5769 24.6328C26.6524 24.4844 26.6902 24.3151 26.6902 24.125C26.6902 23.9453 26.6524 23.7773 26.5769 23.6211C26.504 23.4622 26.3881 23.3346 26.2292 23.2383C26.0704 23.1419 25.862 23.0938 25.6042 23.0938H24.4245V28H23.4441V22.3125H25.6042C26.0443 22.3125 26.418 22.3906 26.7253 22.5469C27.0352 22.7005 27.2709 22.9141 27.4323 23.1875C27.5938 23.4583 27.6745 23.7682 27.6745 24.1172C27.6745 24.4844 27.5938 24.7995 27.4323 25.0625C27.2709 25.3255 27.0352 25.5273 26.7253 25.668C26.418 25.8086 26.0443 25.8789 25.6042 25.8789Z" fill="#555555"/>
</svg>
